<svg xmlns="http://www.w3.org/2000/svg" xmlns:svg="http://www.w3.org/2000/svg" id="svg2" width="32" height="32" version="1.1" viewBox="0 0 32 32"><defs id="defs4"><marker id="Arrow1Lend" orient="auto" refX="0" refY="0" style="overflow:visible"><path id="path4234" d="M 0,0 5,-5 -12.5,0 5,5 0,0 Z" transform="matrix(-0.8,0,0,-0.8,-10,0)" style="fill:#617da1;fill-opacity:1;fill-rule:evenodd;stroke:#617da1;stroke-width:1pt;stroke-opacity:1"/></marker><marker id="Arrow1Lstart" orient="auto" refX="0" refY="0" style="overflow:visible"><path id="path4231" d="M 0,0 5,-5 -12.5,0 5,5 0,0 Z" transform="matrix(0.8,0,0,0.8,10,0)" style="fill:#000;fill-opacity:1;fill-rule:evenodd;stroke:#000;stroke-width:1pt;stroke-opacity:1"/></marker></defs><metadata id="metadata7"/><g id="layer1" transform="translate(0,-1020.3622)" style="opacity:0"><rect style="color:#000;clip-rule:nonzero;display:inline;overflow:visible;visibility:visible;opacity:.48900003;isolation:auto;mix-blend-mode:normal;color-interpolation:sRGB;color-interpolation-filters:linearRGB;solid-color:#000;solid-opacity:1;fill:#5d3b0b;fill-opacity:1;fill-rule:nonzero;stroke:none;stroke-width:5;stroke-linecap:round;stroke-linejoin:round;stroke-miterlimit:4;stroke-dasharray:none;stroke-dashoffset:0;stroke-opacity:1;color-rendering:auto;image-rendering:auto;shape-rendering:auto;text-rendering:auto;enable-background:accumulate" id="rect4136" width="537.143" height="537.143" x="108.571" y="232.362" ry="0"/></g><g id="layer2" transform="translate(0,-1020.3622)"><g id="g4206"><path id="rect4177" d="m 6.7344825,1022.8736 c -0.6270186,0 -1.1323794,0.5032 -1.1323794,1.1303 l 0,24.7167 c 0,0.627 0.5053608,1.1302 1.1323794,1.1302 l 18.5310335,0 c 0.627018,0 1.132379,-0.5032 1.132379,-1.1302 l 0,-16.9661 -6.73994,-8.8809 -12.9234725,0 z" style="opacity:1;fill:#fcfdf1;fill-opacity:1;fill-rule:nonzero;stroke:#6e6f5e;stroke-width:1.66922748;stroke-linecap:round;stroke-linejoin:round;stroke-miterlimit:4;stroke-dasharray:none;stroke-opacity:1"/><path id="path4218" d="m 19.914509,1022.8735 0,7.8376 c 0,0.3892 0.31498,0.7042 0.704204,0.7042 l 5.779267,0 -6.483471,-8.5418 z" style="opacity:1;fill:#fcfdf1;fill-opacity:1;fill-rule:nonzero;stroke:#6e6f5e;stroke-width:1.66922748;stroke-linecap:round;stroke-linejoin:round;stroke-miterlimit:4;stroke-dasharray:none;stroke-opacity:1"/></g><g id="g4202" transform="translate(-0.22767735,0)"><ellipse style="opacity:1;fill:#d4d68c;fill-opacity:1;fill-rule:nonzero;stroke:#c8cb6c;stroke-width:.69685775;stroke-linecap:round;stroke-linejoin:round;stroke-miterlimit:4;stroke-dasharray:none;stroke-opacity:1" id="ellipse4194" cx="16.228" cy="1044.256" rx="7.817" ry="1.786"/><ellipse id="ellipse4198" cx="16.228" cy="1044.166" rx="3.962" ry=".476" style="opacity:1;fill:#fcfdf1;fill-opacity:1;fill-rule:nonzero;stroke:none;stroke-width:.45964342;stroke-linecap:round;stroke-linejoin:round;stroke-miterlimit:4;stroke-dasharray:none;stroke-opacity:1"/></g><path style="fill:#368fac;fill-opacity:1;fill-rule:evenodd;stroke:#2b7188;stroke-width:.81720334;stroke-linecap:butt;stroke-linejoin:miter;stroke-miterlimit:4;stroke-dasharray:none;stroke-opacity:1" id="path4210" d="m 15.999999,1032.9608 -4.451864,5.7416 2.225932,0 0,5.1577 4.451864,0 0,-5.1577 2.225932,0 z"/></g></svg>