<svg xmlns="http://www.w3.org/2000/svg" xmlns:svg="http://www.w3.org/2000/svg" id="svg2" width="32" height="32" version="1.1" viewBox="0 0 32 32"><defs id="defs4"><marker id="Arrow1Lend" orient="auto" refX="0" refY="0" style="overflow:visible"><path id="path4234" d="M 0,0 5,-5 -12.5,0 5,5 0,0 Z" transform="matrix(-0.8,0,0,-0.8,-10,0)" style="fill:#617da1;fill-opacity:1;fill-rule:evenodd;stroke:#617da1;stroke-width:1pt;stroke-opacity:1"/></marker><marker id="Arrow1Lstart" orient="auto" refX="0" refY="0" style="overflow:visible"><path id="path4231" d="M 0,0 5,-5 -12.5,0 5,5 0,0 Z" transform="matrix(0.8,0,0,0.8,10,0)" style="fill:#000;fill-opacity:1;fill-rule:evenodd;stroke:#000;stroke-width:1pt;stroke-opacity:1"/></marker></defs><metadata id="metadata7"/><g id="layer1" transform="translate(0,-1020.3622)" style="opacity:0"><rect style="color:#000;clip-rule:nonzero;display:inline;overflow:visible;visibility:visible;opacity:.48900003;isolation:auto;mix-blend-mode:normal;color-interpolation:sRGB;color-interpolation-filters:linearRGB;solid-color:#000;solid-opacity:1;fill:#5d3b0b;fill-opacity:1;fill-rule:nonzero;stroke:none;stroke-width:5;stroke-linecap:round;stroke-linejoin:round;stroke-miterlimit:4;stroke-dasharray:none;stroke-dashoffset:0;stroke-opacity:1;color-rendering:auto;image-rendering:auto;shape-rendering:auto;text-rendering:auto;enable-background:accumulate" id="rect4136" width="537.143" height="537.143" x="108.571" y="232.362" ry="0"/></g><g id="layer2" transform="translate(0,-1020.3622)"><path style="opacity:1;fill:#80bbdb;fill-opacity:1;fill-rule:nonzero;stroke:#548dad;stroke-width:.97142506;stroke-linecap:round;stroke-linejoin:round;stroke-miterlimit:4;stroke-dasharray:none;stroke-opacity:1" id="rect4901" d="m 10.44448,1025.9309 c 0.65513,0 1.18165,0.5595 1.18165,1.2556 l 0,1.2733 16.256617,0 c 1.376723,0 2.484776,1.1774 2.484776,2.6403 l 0,13.0531 c 0,1.4629 -1.108053,2.6403 -2.484776,2.6403 l -23.7654964,0 c -1.3767228,0 -2.4847757,-1.1774 -2.4847757,-2.6403 l 0,-10.7551 0,-2.298 0,-3.9136 c 0,-0.6961 0.5265186,-1.2556 1.1816486,-1.2556 z"/><path style="opacity:1;fill:#5fa1c7;fill-opacity:1;fill-rule:nonzero;stroke:none;stroke-width:1;stroke-linecap:round;stroke-linejoin:round;stroke-miterlimit:4;stroke-dasharray:none;stroke-opacity:1" id="path4919" d="m 2.1084458,1031.4784 0,0.7321 0,11.4039 c 0,1.5514 1.0713447,2.7998 2.4024592,2.7998 l 22.978188,0 c 1.331114,0 2.40246,-1.2484 2.40246,-2.7998 l 0,-12.136 -27.7831072,0 z"/><text style="font-style:normal;font-weight:400;font-size:33.25431824px;line-height:125%;font-family:Sans;letter-spacing:0;word-spacing:0;fill:#9b80db;fill-opacity:1;stroke:#6e6f5e;stroke-width:1.19503343;stroke-linecap:butt;stroke-linejoin:miter;stroke-miterlimit:4;stroke-dasharray:none;stroke-opacity:1" id="text4229" x="5.843" y="1048.467" xml:space="preserve"><tspan id="tspan4231" x="5.843" y="1048.467" style="font-style:normal;font-variant:normal;font-weight:400;font-stretch:normal;font-family:'Arial Black';-inkscape-font-specification:'Arial Black, ';fill:#9b80db;fill-opacity:1;stroke:#6e6f5e;stroke-width:1.19503343;stroke-miterlimit:4;stroke-dasharray:none;stroke-opacity:1">?</tspan></text></g></svg>