<svg xmlns="http://www.w3.org/2000/svg" xmlns:svg="http://www.w3.org/2000/svg" id="svg2" width="32" height="32" version="1.1" viewBox="0 0 32 32"><defs id="defs4"><marker id="Arrow1Lend" orient="auto" refX="0" refY="0" style="overflow:visible"><path id="path4234" d="M 0,0 5,-5 -12.5,0 5,5 0,0 Z" transform="matrix(-0.8,0,0,-0.8,-10,0)" style="fill:#617da1;fill-opacity:1;fill-rule:evenodd;stroke:#617da1;stroke-width:1pt;stroke-opacity:1"/></marker><marker id="Arrow1Lstart" orient="auto" refX="0" refY="0" style="overflow:visible"><path id="path4231" d="M 0,0 5,-5 -12.5,0 5,5 0,0 Z" transform="matrix(0.8,0,0,0.8,10,0)" style="fill:#000;fill-opacity:1;fill-rule:evenodd;stroke:#000;stroke-width:1pt;stroke-opacity:1"/></marker></defs><metadata id="metadata7"/><g id="layer1" transform="translate(0,-1020.3622)" style="opacity:0"><rect style="color:#000;clip-rule:nonzero;display:inline;overflow:visible;visibility:visible;opacity:.48900003;isolation:auto;mix-blend-mode:normal;color-interpolation:sRGB;color-interpolation-filters:linearRGB;solid-color:#000;solid-opacity:1;fill:#5d3b0b;fill-opacity:1;fill-rule:nonzero;stroke:none;stroke-width:5;stroke-linecap:round;stroke-linejoin:round;stroke-miterlimit:4;stroke-dasharray:none;stroke-dashoffset:0;stroke-opacity:1;color-rendering:auto;image-rendering:auto;shape-rendering:auto;text-rendering:auto;enable-background:accumulate" id="rect4136" width="537.143" height="537.143" x="108.571" y="232.362" ry="0"/></g><g id="layer2" transform="translate(0,-1020.3622)"><g id="g4225" transform="matrix(1.1128183,0,0,1.1128183,55.344213,-128.05315)"><path id="rect4177" d="m -43.681641,13.882812 c -0.563451,0 -1.017578,0.452174 -1.017578,1.015626 l 0,22.210937 c 0,0.563451 0.454127,1.015625 1.017578,1.015625 l 16.652344,0 c 0.563451,0 1.017578,-0.452174 1.017578,-1.015625 l 0,-15.246094 -6.05664,-7.980469 -11.613282,0 z" transform="translate(-9.5367432e-7,1020.3622)" style="opacity:1;fill:#fcfdf1;fill-opacity:1;fill-rule:nonzero;stroke:#6e6f5e;stroke-width:1.5;stroke-linecap:round;stroke-linejoin:round;stroke-miterlimit:4;stroke-dasharray:none;stroke-opacity:1"/><path id="path4218" d="m -31.837816,1034.2449 0,7.043 c 0,0.3498 0.283047,0.6328 0.632812,0.6328 l 5.19336,0 -5.826172,-7.6758 z" style="opacity:1;fill:#fcfdf1;fill-opacity:1;fill-rule:nonzero;stroke:#6e6f5e;stroke-width:1.5;stroke-linecap:round;stroke-linejoin:round;stroke-miterlimit:4;stroke-dasharray:none;stroke-opacity:1"/></g></g></svg>