<svg xmlns="http://www.w3.org/2000/svg" xmlns:svg="http://www.w3.org/2000/svg" id="svg2" width="32" height="32" version="1.1" viewBox="0 0 32 32"><defs id="defs4"><marker id="Arrow1Lend" orient="auto" refX="0" refY="0" style="overflow:visible"><path id="path4234" d="M 0,0 5,-5 -12.5,0 5,5 0,0 Z" transform="matrix(-0.8,0,0,-0.8,-10,0)" style="fill:#617da1;fill-opacity:1;fill-rule:evenodd;stroke:#617da1;stroke-width:1pt;stroke-opacity:1"/></marker><marker id="Arrow1Lstart" orient="auto" refX="0" refY="0" style="overflow:visible"><path id="path4231" d="M 0,0 5,-5 -12.5,0 5,5 0,0 Z" transform="matrix(0.8,0,0,0.8,10,0)" style="fill:#000;fill-opacity:1;fill-rule:evenodd;stroke:#000;stroke-width:1pt;stroke-opacity:1"/></marker></defs><metadata id="metadata7"/><g id="layer1" transform="translate(0,-1020.3622)" style="opacity:0"><rect style="color:#000;clip-rule:nonzero;display:inline;overflow:visible;visibility:visible;opacity:.48900003;isolation:auto;mix-blend-mode:normal;color-interpolation:sRGB;color-interpolation-filters:linearRGB;solid-color:#000;solid-opacity:1;fill:#5d3b0b;fill-opacity:1;fill-rule:nonzero;stroke:none;stroke-width:5;stroke-linecap:round;stroke-linejoin:round;stroke-miterlimit:4;stroke-dasharray:none;stroke-dashoffset:0;stroke-opacity:1;color-rendering:auto;image-rendering:auto;shape-rendering:auto;text-rendering:auto;enable-background:accumulate" id="rect4136" width="537.143" height="537.143" x="108.571" y="232.362" ry="0"/></g><g id="layer2" transform="translate(0,-1020.3622)"><path style="color:#000;clip-rule:nonzero;display:inline;overflow:visible;visibility:visible;opacity:1;isolation:auto;mix-blend-mode:normal;color-interpolation:sRGB;color-interpolation-filters:linearRGB;solid-color:#000;solid-opacity:1;fill:#61a196;fill-opacity:1;fill-rule:nonzero;stroke:none;stroke-width:3;stroke-linecap:round;stroke-linejoin:round;stroke-miterlimit:4;stroke-dasharray:none;stroke-dashoffset:0;stroke-opacity:1;color-rendering:auto;image-rendering:auto;shape-rendering:auto;text-rendering:auto;enable-background:accumulate" id="rect6929" d="m 1.1903085,1030.3763 7.9884604,1.0094 7.7057061,2.0649 7.705714,2.0646 7.422963,3.1201 -1.004649,3.7494 -7.988449,-1.0095 -7.705717,-2.0648 -7.7057052,-2.0647 -7.42297142,-3.12 z"/><g id="g6920" transform="matrix(0.96592583,0.25881905,-0.25881905,0.96592583,268.87497,31.190367)"><rect id="rect4139" width="23.508" height="11.141" x="4.246" y="1031.178" ry="1.539" style="color:#000;clip-rule:nonzero;display:inline;overflow:visible;visibility:visible;opacity:1;isolation:auto;mix-blend-mode:normal;color-interpolation:sRGB;color-interpolation-filters:linearRGB;solid-color:#000;solid-opacity:1;fill:#2d2d2d;fill-opacity:1;fill-rule:nonzero;stroke:none;stroke-width:5;stroke-linecap:round;stroke-linejoin:round;stroke-miterlimit:4;stroke-dasharray:none;stroke-dashoffset:0;stroke-opacity:1;color-rendering:auto;image-rendering:auto;shape-rendering:auto;text-rendering:auto;enable-background:accumulate"/><path id="rect4181" d="m 25.814829,1031.8872 c -6.667001,0.038 -13.336293,-0.046 -20.0018744,0.045 -0.6416148,0.1876 -0.7339823,0.8083 -0.6166024,1.2571 0.059129,2.4318 -0.1547636,4.8799 0.1170802,7.2991 0.37515,0.4502 1.1682938,0.3958 1.7731176,0.3555 6.36877,-0.021 12.74023,0.051 19.107241,-0.039 0.61102,-0.1841 0.735486,-0.7757 0.611786,-1.2113 -0.04476,-2.4297 0.112409,-4.8684 -0.08527,-7.2915 -0.166424,-0.2516 -0.532577,-0.4221 -0.905478,-0.4143 z" style="color:#000;clip-rule:nonzero;display:inline;overflow:visible;visibility:visible;opacity:.9;isolation:auto;mix-blend-mode:normal;color-interpolation:sRGB;color-interpolation-filters:linearRGB;solid-color:#000;solid-opacity:1;fill:#4c4c4c;fill-opacity:1;fill-rule:nonzero;stroke:none;stroke-width:5;stroke-linecap:round;stroke-linejoin:round;stroke-miterlimit:4;stroke-dasharray:none;stroke-dashoffset:0;stroke-opacity:1;color-rendering:auto;image-rendering:auto;shape-rendering:auto;text-rendering:auto;enable-background:accumulate"/><g id="g4177" transform="matrix(0.05906553,0,0,0.04902518,-6.2759034,1010.5886)"><path style="color:#000;clip-rule:nonzero;display:inline;overflow:visible;visibility:visible;opacity:1;isolation:auto;mix-blend-mode:normal;color-interpolation:sRGB;color-interpolation-filters:linearRGB;solid-color:#000;solid-opacity:1;fill:#616161;fill-opacity:1;fill-rule:nonzero;stroke:none;stroke-width:5;stroke-linecap:round;stroke-linejoin:round;stroke-miterlimit:4;stroke-dasharray:none;stroke-dashoffset:0;stroke-opacity:1;color-rendering:auto;image-rendering:auto;shape-rendering:auto;text-rendering:auto;enable-background:accumulate" id="path4159" d="m 293.62058,434.43653 c -16.41699,0.21869 -32.83277,0.54314 -49.24609,0.9982 40.22318,60.65317 80.41322,121.37951 120.66406,181.98201 16.66541,0.0638 33.3307,0.12377 49.99609,0.17961 -40.50006,-61.0078 -80.91528,-122.15931 -121.41406,-183.15982 z"/><path style="color:#000;clip-rule:nonzero;display:inline;overflow:visible;visibility:visible;opacity:1;isolation:auto;mix-blend-mode:normal;color-interpolation:sRGB;color-interpolation-filters:linearRGB;solid-color:#000;solid-opacity:1;fill:#5e5e5e;fill-opacity:1;fill-rule:nonzero;stroke:none;stroke-width:5;stroke-linecap:round;stroke-linejoin:round;stroke-miterlimit:4;stroke-dasharray:none;stroke-dashoffset:0;stroke-opacity:1;color-rendering:auto;image-rendering:auto;shape-rendering:auto;text-rendering:auto;enable-background:accumulate" id="path4163" d="m 368.01511,434.63361 c -9.86715,-0.003 -19.73317,0.02 -29.59961,0.0587 40.58372,60.98623 81.13273,122.04569 121.7461,182.97743 16.59016,-0.003 33.17905,-0.0421 49.76562,-0.16726 -40.56648,-60.89249 -81.04682,-121.93216 -121.60937,-182.82191 -6.76751,-0.0159 -13.53548,-0.0448 -20.30274,-0.0469 z"/></g></g><path style="fill:none;fill-rule:evenodd;stroke:#b54d4d;stroke-width:3;stroke-linecap:butt;stroke-linejoin:miter;stroke-miterlimit:4;stroke-dasharray:none;stroke-opacity:1" id="path6853" d="m 12.288338,1050.5605 7.59194,-28.3336"/><path style="fill:#61a196;fill-opacity:1;fill-rule:evenodd;stroke:none;stroke-width:1px;stroke-linecap:butt;stroke-linejoin:miter;stroke-opacity:1" id="path6931" d="m 11.341431,1034.9779 -8.3653553,4.8296 3.535615,-13.195 z"/><path id="path6937" d="m 20.954687,1037.7169 4.982679,8.6302 3.647574,-13.6128 z" style="fill:#61a196;fill-opacity:1;fill-rule:evenodd;stroke:none;stroke-width:1px;stroke-linecap:butt;stroke-linejoin:miter;stroke-opacity:1"/></g></svg>