<svg xmlns="http://www.w3.org/2000/svg" xmlns:svg="http://www.w3.org/2000/svg" id="svg2" width="32" height="32" version="1.1" viewBox="0 0 32 32"><defs id="defs4"><marker id="Arrow1Lend" orient="auto" refX="0" refY="0" style="overflow:visible"><path id="path4234" d="M 0,0 5,-5 -12.5,0 5,5 0,0 Z" transform="matrix(-0.8,0,0,-0.8,-10,0)" style="fill:#617da1;fill-opacity:1;fill-rule:evenodd;stroke:#617da1;stroke-width:1pt;stroke-opacity:1"/></marker><marker id="Arrow1Lstart" orient="auto" refX="0" refY="0" style="overflow:visible"><path id="path4231" d="M 0,0 5,-5 -12.5,0 5,5 0,0 Z" transform="matrix(0.8,0,0,0.8,10,0)" style="fill:#000;fill-opacity:1;fill-rule:evenodd;stroke:#000;stroke-width:1pt;stroke-opacity:1"/></marker></defs><metadata id="metadata7"/><g id="layer1" transform="translate(0,-1020.3622)" style="opacity:0"><rect style="color:#000;clip-rule:nonzero;display:inline;overflow:visible;visibility:visible;opacity:.48900003;isolation:auto;mix-blend-mode:normal;color-interpolation:sRGB;color-interpolation-filters:linearRGB;solid-color:#000;solid-opacity:1;fill:#5d3b0b;fill-opacity:1;fill-rule:nonzero;stroke:none;stroke-width:5;stroke-linecap:round;stroke-linejoin:round;stroke-miterlimit:4;stroke-dasharray:none;stroke-dashoffset:0;stroke-opacity:1;color-rendering:auto;image-rendering:auto;shape-rendering:auto;text-rendering:auto;enable-background:accumulate" id="rect4136" width="537.143" height="537.143" x="108.571" y="232.362" ry="0"/></g><g id="layer2" transform="translate(0,-1020.3622)"><g id="g4182"><path style="opacity:1;fill:#617da1;fill-opacity:1;stroke:none;stroke-width:.5;stroke-linecap:round;stroke-linejoin:round;stroke-miterlimit:4;stroke-dasharray:none;stroke-opacity:1" id="path4260" d="M 17.705339,1047.9202 3.8554509,1034.0703 a 9.8935231,9.8935231 0 0 0 0.865828,12.9857 9.8935231,9.8935231 0 0 0 12.9840601,0.8642 z"/><path style="opacity:1;fill:#55687f;fill-opacity:1;stroke:none;stroke-width:.5;stroke-linecap:round;stroke-linejoin:round;stroke-miterlimit:4;stroke-dasharray:none;stroke-opacity:1" id="path4262" d="m 15.476114,1045.691 -9.3874081,-9.3874 a 6.7720372,6.7720372 0 0 0 0.839681,8.5453 6.7720372,6.7720372 0 0 0 8.5477271,0.8421 z"/><path style="opacity:1;fill:#45505d;fill-opacity:1;stroke:none;stroke-width:.5;stroke-linecap:round;stroke-linejoin:round;stroke-miterlimit:4;stroke-dasharray:none;stroke-opacity:1" id="path4264" d="m 13.104478,1043.3194 -4.6473891,-4.6474 a 3.5447378,3.5447378 0 0 0 0.752875,3.8953 3.5447378,3.5447378 0 0 0 3.8945141,0.7521 z"/></g><g id="g4271"><path id="path4193" d="m 14.330666,1025.0237 13.849888,13.8499 a 9.8935231,9.8935231 0 0 0 -0.865828,-12.9857 9.8935231,9.8935231 0 0 0 -12.98406,-0.8642 z" style="opacity:1;fill:#617da1;fill-opacity:1;stroke:none;stroke-width:.5;stroke-linecap:round;stroke-linejoin:round;stroke-miterlimit:4;stroke-dasharray:none;stroke-opacity:1"/><path id="circle4209" d="m 16.559891,1027.2529 9.387408,9.3874 a 6.7720372,6.7720372 0 0 0 -0.839681,-8.5453 6.7720372,6.7720372 0 0 0 -8.547727,-0.8421 z" style="opacity:1;fill:#55687f;fill-opacity:1;stroke:none;stroke-width:.5;stroke-linecap:round;stroke-linejoin:round;stroke-miterlimit:4;stroke-dasharray:none;stroke-opacity:1"/><path id="circle4211" d="m 18.931527,1029.6245 4.647389,4.6474 a 3.5447378,3.5447378 0 0 0 -0.752875,-3.8953 3.5447378,3.5447378 0 0 0 -3.894514,-0.7521 z" style="opacity:1;fill:#45505d;fill-opacity:1;stroke:none;stroke-width:.5;stroke-linecap:round;stroke-linejoin:round;stroke-miterlimit:4;stroke-dasharray:none;stroke-opacity:1"/></g><g id="g4185" transform="matrix(0,1,-1,0,1052.3622,1020.3622)"><g id="g4164" transform="matrix(-0.70710678,-0.70710678,-0.70710678,0.70710678,761.06108,315.93318)"><rect style="color:#000;clip-rule:nonzero;display:inline;overflow:visible;visibility:visible;opacity:1;isolation:auto;mix-blend-mode:normal;color-interpolation:sRGB;color-interpolation-filters:linearRGB;solid-color:#000;solid-opacity:1;fill:#2d2d2d;fill-opacity:1;fill-rule:nonzero;stroke:none;stroke-width:5;stroke-linecap:round;stroke-linejoin:round;stroke-miterlimit:4;stroke-dasharray:none;stroke-dashoffset:0;stroke-opacity:1;color-rendering:auto;image-rendering:auto;shape-rendering:auto;text-rendering:auto;enable-background:accumulate" id="rect4139" width="29.49" height="13.976" x="1021.513" y="-24.406" ry="1.931" transform="matrix(0,1,-1,0,0,0)"/><path style="color:#000;clip-rule:nonzero;display:inline;overflow:visible;visibility:visible;opacity:.9;isolation:auto;mix-blend-mode:normal;color-interpolation:sRGB;color-interpolation-filters:linearRGB;solid-color:#000;solid-opacity:1;fill:#4c4c4c;fill-opacity:1;fill-rule:nonzero;stroke:none;stroke-width:5;stroke-linecap:round;stroke-linejoin:round;stroke-miterlimit:4;stroke-dasharray:none;stroke-dashoffset:0;stroke-opacity:1;color-rendering:auto;image-rendering:auto;shape-rendering:auto;text-rendering:auto;enable-background:accumulate" id="rect4181" d="m 23.516546,1048.5704 c -0.04767,-8.3635 0.05771,-16.73 -0.05645,-25.0917 -0.235339,-0.805 -1.013989,-0.9207 -1.576996,-0.7735 -3.050625,0.074 -6.121697,-0.1942 -9.156515,0.1468 -0.564763,0.4707 -0.49652,1.4656 -0.445964,2.2244 0.02634,7.9894 -0.06398,15.9823 0.04892,23.9695 0.230948,0.7665 0.973094,0.9226 1.519542,0.7675 3.04799,-0.056 6.10727,0.141 9.14698,-0.1067 0.315625,-0.2087 0.529513,-0.6681 0.519728,-1.1359 z"/><g id="g4177" transform="matrix(0,0.07409604,-0.0615007,0,50.235037,1008.3136)"><path id="path4159" d="m 293.62058,434.43653 c -16.41699,0.21869 -32.83277,0.54314 -49.24609,0.9982 40.22318,60.65317 80.41322,121.37951 120.66406,181.98201 16.66541,0.0638 33.3307,0.12377 49.99609,0.17961 -40.50006,-61.0078 -80.91528,-122.15931 -121.41406,-183.15982 z" style="color:#000;clip-rule:nonzero;display:inline;overflow:visible;visibility:visible;opacity:1;isolation:auto;mix-blend-mode:normal;color-interpolation:sRGB;color-interpolation-filters:linearRGB;solid-color:#000;solid-opacity:1;fill:#616161;fill-opacity:1;fill-rule:nonzero;stroke:none;stroke-width:5;stroke-linecap:round;stroke-linejoin:round;stroke-miterlimit:4;stroke-dasharray:none;stroke-dashoffset:0;stroke-opacity:1;color-rendering:auto;image-rendering:auto;shape-rendering:auto;text-rendering:auto;enable-background:accumulate"/><path id="path4163" d="m 368.01511,434.63361 c -9.86715,-0.003 -19.73317,0.02 -29.59961,0.0587 40.58372,60.98623 81.13273,122.04569 121.7461,182.97743 16.59016,-0.003 33.17905,-0.0421 49.76562,-0.16726 -40.56648,-60.89249 -81.04682,-121.93216 -121.60937,-182.82191 -6.76751,-0.0159 -13.53548,-0.0448 -20.30274,-0.0469 z" style="color:#000;clip-rule:nonzero;display:inline;overflow:visible;visibility:visible;opacity:1;isolation:auto;mix-blend-mode:normal;color-interpolation:sRGB;color-interpolation-filters:linearRGB;solid-color:#000;solid-opacity:1;fill:#5e5e5e;fill-opacity:1;fill-rule:nonzero;stroke:none;stroke-width:5;stroke-linecap:round;stroke-linejoin:round;stroke-miterlimit:4;stroke-dasharray:none;stroke-dashoffset:0;stroke-opacity:1;color-rendering:auto;image-rendering:auto;shape-rendering:auto;text-rendering:auto;enable-background:accumulate"/></g></g></g><g id="g4178" transform="matrix(0.77902994,0,0,0.77902994,51.018309,218.11381)"><rect id="rect4176" width="37.768" height="6.339" x="-794.394" y="708.638" ry="0" transform="matrix(0.70710678,-0.70710678,0.70710678,0.70710678,0,0)" style="opacity:1;fill:#aa6056;fill-opacity:1;stroke:none;stroke-width:2.61800003;stroke-linecap:round;stroke-linejoin:round;stroke-miterlimit:4;stroke-dasharray:none;stroke-opacity:.88922155"/><path id="path4170" d="M -44.951172,9.7773438 A 20.203051,20.203051 0 0 0 -65.154297,29.980469 20.203051,20.203051 0 0 0 -44.951172,50.183594 20.203051,20.203051 0 0 0 -24.748047,29.980469 20.203051,20.203051 0 0 0 -44.951172,9.7773438 Z m 0,4.3750002 a 15.828051,15.828051 0 0 1 15.828125,15.828125 15.828051,15.828051 0 0 1 -15.828125,15.828125 15.828051,15.828051 0 0 1 -15.828125,-15.828125 15.828051,15.828051 0 0 1 15.828125,-15.828125 z" transform="translate(-9.5367432e-7,1020.3622)" style="opacity:1;fill:#aa6056;fill-opacity:1;stroke:none;stroke-width:2.61800003;stroke-linecap:round;stroke-linejoin:round;stroke-miterlimit:4;stroke-dasharray:none;stroke-opacity:.88922155"/></g></g></svg>