<svg xmlns="http://www.w3.org/2000/svg" xmlns:svg="http://www.w3.org/2000/svg" id="svg8" width="64" height="64" version="1.1" viewBox="0 0 16.933 16.933"><defs id="defs2"><mask id="mask1103" maskUnits="userSpaceOnUse"><rect style="opacity:1;fill:#e8e7e7;fill-opacity:1;stroke:none;stroke-width:1;stroke-linecap:butt;stroke-linejoin:round;stroke-miterlimit:4;stroke-dasharray:none;stroke-opacity:1;paint-order:markers fill stroke" id="rect1105" width="4.584" height="17.212" x="35.266" y="5.115"/></mask><mask id="mask1131" maskUnits="userSpaceOnUse"><path style="opacity:1;fill:#64b1df;fill-opacity:1;stroke:none;stroke-width:12.09194851;stroke-linecap:butt;stroke-linejoin:round;stroke-miterlimit:4;stroke-dasharray:none;stroke-opacity:1;paint-order:markers fill stroke" id="path1133" d="M 60.625098,21.909981 V 4.9766519 H 43.691765 v 0.006 l 16.92765,16.9276491 z"/></mask></defs><metadata id="metadata5"/><g id="layer2"><rect style="opacity:1;fill:#fefefe;fill-opacity:1;stroke:none;stroke-width:.82572281;stroke-linecap:butt;stroke-linejoin:round;stroke-miterlimit:4;stroke-dasharray:none;stroke-opacity:1;paint-order:markers fill stroke" id="rect1051" width="8.599" height="1.984" x="-12.369" y="20.174"/><g id="g3096" transform="translate(-43.691765,34.049609)"><rect style="opacity:1;fill:#4e9ac8;fill-opacity:1;stroke:none;stroke-width:12.09194851;stroke-linecap:butt;stroke-linejoin:round;stroke-miterlimit:4;stroke-dasharray:none;stroke-opacity:1;paint-order:markers fill stroke" id="rect3023" width="16.933" height="16.933" x="43.692" y="-34.049"/><path style="opacity:1;fill:#64b1df;fill-opacity:1;stroke:none;stroke-width:12.09194851;stroke-linecap:butt;stroke-linejoin:round;stroke-miterlimit:4;stroke-dasharray:none;stroke-opacity:1;paint-order:markers fill stroke" id="path3025" d="m 60.625099,-17.11628 0,-16.933329 -16.933333,0 0,0.006 16.92765,16.927649 z"/><path style="fill:none;stroke:#2c377f;stroke-width:1.60085762;stroke-linecap:butt;stroke-linejoin:miter;stroke-miterlimit:4;stroke-dasharray:none;stroke-opacity:1" id="path3027" d="m 47.198745,-30.887909 c 0,0 -3.27652,10.208224 0.152002,9.725277 3.410478,-0.480401 4.160872,-11.690975 8.651528,-9.26606 2.221298,1.19948 -0.281976,8.77544 -0.281976,8.77544"/><circle id="circle3045" cx="46.925" cy="-30.528" r="2.033" style="opacity:1;fill:#fefefe;fill-opacity:1;stroke:#424e96;stroke-width:.80506569;stroke-linecap:butt;stroke-linejoin:round;stroke-miterlimit:4;stroke-dasharray:none;stroke-opacity:1;paint-order:markers fill stroke"/><path style="opacity:1;fill:#e8e7e7;fill-opacity:1;stroke:none;stroke-width:.64737606;stroke-linecap:butt;stroke-linejoin:round;stroke-miterlimit:4;stroke-dasharray:none;stroke-opacity:1;paint-order:markers fill stroke" id="path3047" d="m 45.769334,-31.686878 a 1.6231118,1.6471276 0 0 0 -0.472882,1.159772 1.6231118,1.6471276 0 0 0 1.623544,1.646848 1.6231118,1.6471276 0 0 0 1.142863,-0.479161 z"/><circle style="opacity:1;fill:#fefefe;fill-opacity:1;stroke:#424e96;stroke-width:1.28624356;stroke-linecap:butt;stroke-linejoin:round;stroke-miterlimit:4;stroke-dasharray:none;stroke-opacity:1;paint-order:markers fill stroke" id="circle3049" cx="56.003" cy="-21.697" r="3.249"/><path style="opacity:1;fill:#e8e7e7;fill-opacity:1;stroke:none;stroke-width:1.03112972;stroke-linecap:butt;stroke-linejoin:round;stroke-miterlimit:4;stroke-dasharray:none;stroke-opacity:1;paint-order:markers fill stroke" id="path3051" d="m 54.141521,-23.515865 a 2.6043208,2.6043208 0 0 0 -0.760798,1.837285 2.6043208,2.6043208 0 0 0 2.604334,2.604333 2.6043208,2.6043208 0 0 0 1.837287,-0.760795 z"/></g></g></svg>