<svg xmlns="http://www.w3.org/2000/svg" xmlns:xlink="http://www.w3.org/1999/xlink" id="Calque_1" x="0" y="0" version="1.1" viewBox="0 0 19.1 16" xml:space="preserve" style="enable-background:new 0 0 19.1 16"><style type="text/css">.st0{fill:#27aae1}.st1{fill:#2b3990}.st2{fill:#fff}.st3{opacity:.1}</style><rect id="base" width="14" height="14" x="2.9" y="1" class="st0"/><rect id="frame" width="12" height="8.6" x="3.9" y="3.7" class="st1"/><g id="hole"><rect width="1" height=".9" x="14.5" y="4.3" class="st2"/><rect width="1" height=".9" x="4.4" y="4.3" class="st2"/><rect width="1" height=".9" x="12" y="4.3" class="st2"/><rect width="1" height=".9" x="6.9" y="4.3" class="st2"/><rect width="1" height=".9" x="9.4" y="4.3" class="st2"/></g><g id="hole_1_"><rect width="1" height=".9" x="14.5" y="10.7" class="st2"/><rect width="1" height=".9" x="4.4" y="10.7" class="st2"/><rect width="1" height=".9" x="12" y="10.7" class="st2"/><rect width="1" height=".9" x="6.9" y="10.7" class="st2"/><rect width="1" height=".9" x="9.4" y="10.7" class="st2"/></g><polygon id="triangle_1_" points="8.6 9.6 12.1 7.9 8.6 6.3" class="st2"/><g id="highlight"><g class="st3"><polygon points="16.9 15 2.9 1 2.9 15"/><polygon points="16.9 1 2.9 1 16.9 15" class="st2"/></g></g></svg>