<svg xmlns="http://www.w3.org/2000/svg" xmlns:svg="http://www.w3.org/2000/svg" id="svg8" width="600mm" height="600mm" version="1.1" viewBox="0 0 600 600"><metadata id="metadata5"/><g id="layer1" transform="translate(0,303)"><g id="g4610" transform="matrix(3.4905176,0,0,3.4905176,-62.816445,-509.312)" style="opacity:1"><circle style="fill:#d3d562;fill-opacity:1;stroke-width:.26458332" id="path21" cx="103.943" cy="145.054" r="85.423"/><circle id="circle4534" cx="103.943" cy="145.054" r="60.854" style="fill:#d5bd62;fill-opacity:1;stroke-width:.18848635"/><circle style="fill:#878c36;fill-opacity:1;stroke-width:.13814528" id="circle4536" cx="103.943" cy="144.676" r="44.601"/><circle id="path4544" cx="104.421" cy="79.204" r="16.631" style="fill:#f0f1db;fill-opacity:1;stroke-width:.26458332"/><text id="text4548" x="93.865" y="89.491" xml:space="preserve" style="font-style:normal;font-weight:400;font-size:10.58333302px;line-height:1.25;font-family:sans-serif;letter-spacing:0;word-spacing:0;fill:#4b4b23;fill-opacity:1;stroke:none;stroke-width:.26458332"><tspan style="font-size:28.22222137px;fill:#4b4b23;fill-opacity:1;stroke-width:.26458332" id="tspan4546" x="93.865" y="89.491">N</tspan></text><circle style="fill:#f0f1db;fill-opacity:1;stroke-width:.26458332" id="circle4555" cx="104.421" cy="211.496" r="16.631"/><text style="font-style:normal;font-weight:400;font-size:10.58333302px;line-height:1.25;font-family:sans-serif;letter-spacing:0;word-spacing:0;fill:#4b4b23;fill-opacity:1;stroke:none;stroke-width:.26458332" id="text4559" x="95.319" y="221.769" xml:space="preserve"><tspan id="tspan4557" x="95.319" y="221.769" style="font-size:28.22222137px;fill:#4b4b23;fill-opacity:1;stroke-width:.26458332">S</tspan></text><circle style="fill:#f0f1db;fill-opacity:1;stroke-width:.26458332" id="circle4566" cx="37.897" cy="144.676" r="16.631"/><text style="font-style:normal;font-weight:400;font-size:10.58333302px;line-height:1.25;font-family:sans-serif;letter-spacing:0;word-spacing:0;fill:#4b4b23;fill-opacity:1;stroke:none;stroke-width:.26458332" id="text4570" x="23.938" y="154.963" xml:space="preserve"><tspan id="tspan4568" x="23.938" y="154.963" style="font-size:28.22222137px;fill:#4b4b23;fill-opacity:1;stroke-width:.26458332">W</tspan></text><circle id="circle4580" cx="170.567" cy="144.676" r="16.631" style="fill:#f0f1db;fill-opacity:1;stroke-width:.26458332"/><text id="text4584" x="161.168" y="154.963" xml:space="preserve" style="font-style:normal;font-weight:400;font-size:10.58333302px;line-height:1.25;font-family:sans-serif;letter-spacing:0;word-spacing:0;fill:#4b4b23;fill-opacity:1;stroke:none;stroke-width:.26458332"><tspan style="font-size:28.22222137px;fill:#4b4b23;fill-opacity:1;stroke-width:.26458332" id="tspan4582" x="161.168" y="154.963">E</tspan></text></g><g id="g4593" transform="matrix(0,3.4905176,-3.4905176,0,804.99273,-365.81645)" style="opacity:1"><path id="ellipse4550" d="m 112.82589,144.6756 c -17.76488,0 0,0 -17.76488,0 0,0 3.976804,-45.585354 8.88244,-45.585356 4.90564,2e-6 8.88244,45.585356 8.88244,45.585356 z" style="fill:#8d3737;fill-opacity:1;stroke-width:.2346305"/><path style="fill:#f0f1db;fill-opacity:1;stroke-width:.2346305" id="path4553" d="m 112.82589,144.6756 c -17.76488,0 0,0 -17.76488,0 0,0 3.976804,45.58536 8.88244,45.58536 4.90564,0 8.88244,-45.58536 8.88244,-45.58536 z"/><circle id="circle4540" cx="103.943" cy="144.676" r="11.717" style="fill:#d5bd62;fill-opacity:1;stroke-width:.03629242"/><circle style="fill:#b05f44;fill-opacity:1;stroke-width:.0186961" id="circle4542" cx="104.421" cy="144.676" r="6.036"/></g></g></svg>